<svg width="290" height="56" viewBox="0 0 290 56" fill="none" xmlns="http://www.w3.org/2000/svg">
<g clip-path="url(#clip0_0_1)">
<path d="M76.8823 46.1906H73.2476V11.0902H74.0092L97.3403 37.9521V11.0902H100.802V46.1906H100.006L76.8823 19.6749V46.1906ZM121.018 19.0172C125.01 19.0172 128.321 20.4595 130.952 23.3442C133.398 25.975 134.622 29.1019 134.622 32.7251C134.645 41.7021 134.645 46.2599 134.622 46.3983C133.098 46.3983 131.922 46.3983 131.091 46.3983C131.091 46.283 131.091 44.3099 131.091 40.479C129.245 43.9406 125.887 45.8676 121.018 46.2599C117.048 46.2599 113.806 44.9099 111.29 42.2098C108.775 39.5098 107.517 36.3482 107.517 32.7251C107.517 29.125 108.706 26.0096 111.083 23.3788C113.714 20.4711 117.025 19.0172 121.018 19.0172ZM121.018 22.2711C118.271 22.2711 115.894 23.298 113.887 25.3519C111.902 27.4058 110.91 29.8866 110.91 32.7943C110.91 34.6636 111.417 36.4636 112.433 38.1944C113.471 39.9252 115.202 41.3906 117.625 42.5906C123.718 43.9522 128.045 41.1829 130.606 34.2828C130.745 32.0905 130.514 29.9789 129.914 27.9481C129.452 27.0481 128.841 26.1827 128.079 25.3519C126.141 23.298 123.787 22.2711 121.018 22.2711ZM141.06 46.2599V36.3944L141.025 33.6251C140.979 32.2635 141.037 31.1097 141.199 30.1635C141.545 27.1865 142.295 25.0057 143.449 23.6211C144.579 22.398 145.745 21.4634 146.945 20.8172C148.906 19.9864 151.133 19.5941 153.626 19.6403C155.587 19.6403 157.399 20.1249 159.06 21.0941C160.722 22.0865 161.91 23.4134 162.626 25.075C163.341 26.7365 163.699 29.3443 163.699 32.8982V46.2599H160.376V33.8674C160.376 30.8674 160.249 28.8596 159.995 27.8442C159.603 26.1365 158.818 24.925 157.641 24.2096C156.487 23.4942 154.768 23.1365 152.483 23.1365C150.453 23.1365 148.653 23.7134 147.083 24.8673C145.514 26.0442 144.776 27.6365 144.868 29.6443C144.568 30.9366 144.418 33.302 144.418 36.7405V46.2599H141.06ZM171.972 9.60167C172.734 9.60167 173.38 9.8786 173.911 10.4325C174.464 10.9632 174.741 11.6094 174.741 12.3709C174.741 13.1325 174.464 13.7787 173.911 14.3094C173.38 14.8633 172.734 15.1402 171.972 15.1402C171.211 15.1402 170.564 14.8633 170.034 14.3094C169.503 13.7787 169.237 13.1325 169.237 12.3709C169.237 11.6094 169.503 10.9632 170.034 10.4325C170.564 9.8786 171.211 9.60167 171.972 9.60167ZM170.311 46.2599V20.298H173.668V46.2599H170.311ZM192.257 46.0868H181.076V11.0209H188.345C193.607 11.0209 197.426 11.4478 199.803 12.3017C203.196 13.4786 205.849 15.5325 207.765 18.4633C209.68 21.4172 210.638 24.925 210.638 28.9866C210.638 32.4943 209.876 35.5867 208.353 38.2636C206.83 40.9406 204.857 42.9137 202.434 44.1829C200.011 45.4522 196.619 46.0868 192.257 46.0868ZM184.434 14.4133V42.7637H188.484C193.33 42.7637 196.699 42.4637 198.592 41.8637C201.222 41.0098 203.299 39.4636 204.823 37.2251C206.323 35.0097 207.073 32.2866 207.073 29.0558C207.073 25.6634 206.265 22.7672 204.649 20.3672C203.011 17.9672 200.726 16.3287 197.796 15.4518C195.58 14.7594 191.957 14.4133 186.926 14.4133H184.434ZM216.765 46.0868V11.0209H227.911C230.681 11.0209 232.815 11.344 234.315 11.9902C235.815 12.6594 236.992 13.6863 237.846 15.071C238.723 16.4325 239.161 17.9441 239.161 19.6057C239.161 21.1749 238.781 22.5942 238.019 23.8634C237.235 25.1327 236.104 26.1596 234.627 26.9442C236.473 27.5904 237.892 28.3289 238.885 29.1596C239.854 29.9904 240.615 30.9943 241.169 32.1712C241.723 33.3482 242 34.6289 242 36.0136C242 38.8521 240.962 41.2406 238.885 43.1791C236.831 45.1176 234.073 46.0868 230.611 46.0868H216.765ZM228.465 14.4479H220.192V25.6981H226.423C228.846 25.6981 230.634 25.4673 231.788 25.0057C232.919 24.5442 233.819 23.8288 234.488 22.8595C235.158 21.8903 235.492 20.8057 235.492 19.6057C235.492 17.9902 234.938 16.721 233.831 15.7979C232.7 14.8979 230.911 14.4479 228.465 14.4479ZM226.388 29.1943H220.192V42.6598H228.777C231.315 42.6598 233.184 42.406 234.385 41.8983C235.585 41.4137 236.542 40.6406 237.258 39.579C237.973 38.5175 238.331 37.3521 238.331 36.0828C238.331 34.5366 237.823 33.1866 236.808 32.0328C235.792 30.8558 234.396 30.0597 232.619 29.6443C231.419 29.3443 229.342 29.1943 226.388 29.1943Z" fill="white"/>
<path d="M13.1918 25.3286C14.378 24.7032 15.5989 24.1459 16.8486 23.6595C15.5949 24.1448 14.3705 24.7023 13.1814 25.3293C12.9386 25.4102 12.6045 25.5721 12.4427 25.7339C12.1189 25.8958 11.7751 25.9767 11.5323 26.2195C11.7751 25.9767 12.1397 25.8958 12.4634 25.7339C12.6252 25.5721 12.949 25.4096 13.1918 25.3286ZM38.4423 39.4113L40.7083 34.8792H32.2915L30.511 39.4113H38.4423ZM41.3558 25.17C41.5157 25.2458 41.6802 25.3254 41.8446 25.407C41.6826 25.3252 41.5197 25.2453 41.3558 25.1674C40.7893 24.7628 40.2227 24.52 39.7372 24.52C40.2227 24.52 40.7893 24.7654 41.3558 25.17ZM39.0392 24.318L39.0405 24.3219C39.0994 24.2532 39.1985 24.1373 39.3286 24.1626C39.1998 24.1367 39.1001 24.248 39.0392 24.318ZM44.4694 29.5999L44.7549 27.0288L44.7471 27.0243L44.4694 29.5999ZM25.2505 39.4113L23.3891 34.8792H15.0532L17.3192 39.4113H25.2505Z" fill="#E87967"/>
<path d="M37.8758 32.1676C40.2228 30.3872 39.5753 26.5426 39.1707 24.924L39.1474 24.8353C38.9933 24.7654 38.8359 24.8644 38.6041 24.7874L38.9162 24.52H38.9149L38.6041 24.7854L34.8813 28.8572C36.9855 25.3772 25.6552 24.2124 25.6552 24.2124C24.7649 25.6692 25.4933 29.1259 25.4933 29.1259C22.4989 29.1259 16.9146 26.2668 16.9146 26.2668L19.6663 32.9368H24.6031L27.7594 40.7062H16.2672L15.8625 39.9325L15.4578 39.0772L14.0011 36.2343L13.4346 35.1621L12.3825 32.9368H15.8625C14.082 32.2894 12.2005 30.7925 11.1484 30.145C10.6628 29.7403 10.4 29.6193 10.4 29.6193L10.2783 27.5144V29.6186C10.2783 29.6186 10.9257 29.7805 10.9257 30.1851V43.4578L18.4523 54.3026H36.4999L43.9456 43.4578V39.5732L43.46 39.3304L43.9456 39.2494V36.3359L41.9223 35.9313L43.9456 34.6364V30.9336C42.4079 32.6331 37.8758 32.1676 37.8758 32.1676ZM11.1685 36.3359V35.9313C11.2494 35.9313 11.3304 36.0122 11.4113 36.174L11.1685 36.3359ZM40.5465 38.5515L40.2228 39.3103L39.5753 40.5042L39.4944 40.7062H28.0022L31.1585 32.9368H43.3791L40.5465 38.5515Z" fill="#E87967"/>
<path d="M11.1685 35.9313V36.3359L11.4113 36.174C11.3304 36.0122 11.2494 35.9313 11.1685 35.9313Z" fill="#E87967"/>
<path d="M53.2119 36.174L46.5956 35.041L58.9476 27.1907L49.5447 26.3004L54.0691 21.1209L41.6834 23.2251C41.6834 22.4967 41.6005 21.8492 41.3577 21.1209C40.2247 18.4501 36.5821 16.6696 35.2063 16.0222C35.611 9.95237 30.5926 3.63974 30.4307 3.39695L30.2682 3.07322L18.1286 0.402496L19.0997 2.10205C22.7416 8.01002 22.1751 11.1663 21.5277 12.5422C18.6951 9.87143 12.7871 7.24085 12.4634 7.16057L12.3015 7.03885H11.9778C0.971173 9.62864 0.0809311 13.6351 0.0809311 14.1206L0 14.8691L0.647449 15.1222C5.01773 16.0934 9.46894 22.654 11.1685 25.3247C11.4113 25.1629 11.6541 25.0036 11.8969 24.8417C12.1397 24.6799 12.3825 24.6015 12.6253 24.4397C15.6197 22.7395 20.6374 20.6353 27.1928 20.6353H27.1948C20.64 20.6359 15.6216 22.7395 12.6272 24.439C12.3844 24.6009 12.141 24.6818 11.8982 24.8437L11.1698 25.3293C11.0889 25.4102 11.0079 25.4102 10.7651 25.5721C10.7562 25.5798 10.7471 25.5873 10.7379 25.5947C6.61239 26.9097 0.66493 30.7536 0.0207181 31.1563C0.0207181 31.2372 0.0511488 31.2372 0.0511488 31.2372L1.21397 32.6131V32.5321C1.86142 32.1275 5.09866 33.3415 9.6308 35.2029V37.6308L7.041 39.6541L9.6308 40.0587V43.9434L17.4811 55.5975H37.3092L45.8879 43.9434V42.0011H47.9921L45.8879 40.7062V38.6829L53.2119 36.174ZM39.0405 24.3218L39.0392 24.318C39.1001 24.248 39.1998 24.1367 39.3286 24.1626C39.1985 24.1373 39.0994 24.2532 39.0405 24.3218ZM41.3558 25.1674C41.5157 25.2432 41.6802 25.3241 41.8446 25.407C41.6824 25.3265 41.5194 25.2475 41.3558 25.17C40.7893 24.7653 40.2228 24.52 39.7372 24.52C40.2228 24.52 40.7893 24.7628 41.3558 25.1674ZM12.4433 25.7339C12.6052 25.5721 12.9393 25.4102 13.1821 25.3293C14.371 24.7021 15.5955 24.1445 16.8492 23.6595C15.5995 24.1459 14.3786 24.7032 13.1924 25.3286C12.9496 25.4096 12.6259 25.5721 12.464 25.7339C12.1403 25.8958 11.7764 25.9767 11.533 26.2195C11.7751 25.9767 12.1196 25.8958 12.4433 25.7339ZM43.9456 34.6364L41.9223 35.9312L43.9456 36.3359V39.2494L43.46 39.3304L43.9456 39.5731V43.4578L36.4999 54.3026H18.4523L10.9257 43.4578V30.1851C10.9257 29.7805 10.2782 29.6186 10.2782 29.6186V27.5144L10.4 29.6186C10.4 29.6186 10.6628 29.7403 11.1484 30.1444C12.2005 30.7918 14.082 32.2887 15.8625 32.9362H12.3825L13.4346 35.1621L14.0011 36.2343L15.4578 39.0772L15.8625 39.9318L16.2671 40.7062H27.7594L24.6031 32.9368H19.6663L16.9146 26.2603C16.9146 26.2603 22.4988 29.113 25.4933 29.113C25.4933 29.113 24.7649 25.6433 25.6552 24.1865C25.6552 24.1865 36.9855 25.3247 34.8813 28.8048L38.6041 24.7861L38.9149 24.52H38.9162L38.6041 24.788C38.8353 24.8651 38.9932 24.8191 39.1473 24.889C39.1558 24.9194 39.1622 24.9194 39.1706 24.9512C39.5753 26.5698 40.2228 30.4007 37.8758 32.1812C37.8758 32.1812 42.4079 32.6331 43.9456 30.9336V34.6364ZM23.3891 34.8791L25.2505 39.4113H17.3193L15.0532 34.8791H23.3891ZM44.4694 29.5998L44.7478 27.0243L44.7555 27.0288L44.4694 29.5998Z" fill="black"/>
<path d="M28.0022 40.7062H39.4944L39.5753 40.5042L40.2228 39.3103L40.5465 38.5515L43.3791 32.9368H31.1585L28.0022 40.7062ZM40.7083 34.8792L38.4423 39.4113H30.511L32.2915 34.8792H40.7083Z" fill="black"/>
<path d="M250.062 38.0195H245.738L245.715 36.2031H249.641C250.289 36.2031 250.855 36.0938 251.34 35.875C251.824 35.6562 252.199 35.3438 252.465 34.9375C252.738 34.5234 252.875 34.0312 252.875 33.4609C252.875 32.8359 252.754 32.3281 252.512 31.9375C252.277 31.5391 251.914 31.25 251.422 31.0703C250.938 30.8828 250.32 30.7891 249.57 30.7891H246.242V46H243.98V28.9375H249.57C250.445 28.9375 251.227 29.0273 251.914 29.207C252.602 29.3789 253.184 29.6523 253.66 30.0273C254.145 30.3945 254.512 30.8633 254.762 31.4336C255.012 32.0039 255.137 32.6875 255.137 33.4844C255.137 34.1875 254.957 34.8242 254.598 35.3945C254.238 35.957 253.738 36.418 253.098 36.7773C252.465 37.1367 251.723 37.3672 250.871 37.4688L250.062 38.0195ZM249.957 46H244.848L246.125 44.1602H249.957C250.676 44.1602 251.285 44.0352 251.785 43.7852C252.293 43.5352 252.68 43.1836 252.945 42.7305C253.211 42.2695 253.344 41.7266 253.344 41.1016C253.344 40.4688 253.23 39.9219 253.004 39.4609C252.777 39 252.422 38.6445 251.938 38.3945C251.453 38.1445 250.828 38.0195 250.062 38.0195H246.84L246.863 36.2031H251.27L251.75 36.8594C252.57 36.9297 253.266 37.1641 253.836 37.5625C254.406 37.9531 254.84 38.4531 255.137 39.0625C255.441 39.6719 255.594 40.3438 255.594 41.0781C255.594 42.1406 255.359 43.0391 254.891 43.7734C254.43 44.5 253.777 45.0547 252.934 45.4375C252.09 45.8125 251.098 46 249.957 46ZM263.867 46.2344C262.984 46.2344 262.184 46.0859 261.465 45.7891C260.754 45.4844 260.141 45.0586 259.625 44.5117C259.117 43.9648 258.727 43.3164 258.453 42.5664C258.18 41.8164 258.043 40.9961 258.043 40.1055V39.6133C258.043 38.582 258.195 37.6641 258.5 36.8594C258.805 36.0469 259.219 35.3594 259.742 34.7969C260.266 34.2344 260.859 33.8086 261.523 33.5195C262.188 33.2305 262.875 33.0859 263.586 33.0859C264.492 33.0859 265.273 33.2422 265.93 33.5547C266.594 33.8672 267.137 34.3047 267.559 34.8672C267.98 35.4219 268.293 36.0781 268.496 36.8359C268.699 37.5859 268.801 38.4062 268.801 39.2969V40.2695H259.332V38.5H266.633V38.3359C266.602 37.7734 266.484 37.2266 266.281 36.6953C266.086 36.1641 265.773 35.7266 265.344 35.3828C264.914 35.0391 264.328 34.8672 263.586 34.8672C263.094 34.8672 262.641 34.9727 262.227 35.1836C261.812 35.3867 261.457 35.6914 261.16 36.0977C260.863 36.5039 260.633 37 260.469 37.5859C260.305 38.1719 260.223 38.8477 260.223 39.6133V40.1055C260.223 40.707 260.305 41.2734 260.469 41.8047C260.641 42.3281 260.887 42.7891 261.207 43.1875C261.535 43.5859 261.93 43.8984 262.391 44.125C262.859 44.3516 263.391 44.4648 263.984 44.4648C264.75 44.4648 265.398 44.3086 265.93 43.9961C266.461 43.6836 266.926 43.2656 267.324 42.7422L268.637 43.7852C268.363 44.1992 268.016 44.5938 267.594 44.9688C267.172 45.3438 266.652 45.6484 266.035 45.8828C265.426 46.1172 264.703 46.2344 263.867 46.2344ZM276.641 33.3203V34.9844H269.785V33.3203H276.641ZM272.105 30.2383H274.273V42.8594C274.273 43.2891 274.34 43.6133 274.473 43.832C274.605 44.0508 274.777 44.1953 274.988 44.2656C275.199 44.3359 275.426 44.3711 275.668 44.3711C275.848 44.3711 276.035 44.3555 276.23 44.3242C276.434 44.2852 276.586 44.2539 276.688 44.2305L276.699 46C276.527 46.0547 276.301 46.1055 276.02 46.1523C275.746 46.207 275.414 46.2344 275.023 46.2344C274.492 46.2344 274.004 46.1289 273.559 45.918C273.113 45.707 272.758 45.3555 272.492 44.8633C272.234 44.3633 272.105 43.6914 272.105 42.8477V30.2383ZM286.66 43.832V37.3047C286.66 36.8047 286.559 36.3711 286.355 36.0039C286.16 35.6289 285.863 35.3398 285.465 35.1367C285.066 34.9336 284.574 34.832 283.988 34.832C283.441 34.832 282.961 34.9258 282.547 35.1133C282.141 35.3008 281.82 35.5469 281.586 35.8516C281.359 36.1562 281.246 36.4844 281.246 36.8359H279.078C279.078 36.3828 279.195 35.9336 279.43 35.4883C279.664 35.043 280 34.6406 280.438 34.2812C280.883 33.9141 281.414 33.625 282.031 33.4141C282.656 33.1953 283.352 33.0859 284.117 33.0859C285.039 33.0859 285.852 33.2422 286.555 33.5547C287.266 33.8672 287.82 34.3398 288.219 34.9727C288.625 35.5977 288.828 36.3828 288.828 37.3281V43.2344C288.828 43.6562 288.863 44.1055 288.934 44.582C289.012 45.0586 289.125 45.4688 289.273 45.8125V46H287.012C286.902 45.75 286.816 45.418 286.754 45.0039C286.691 44.582 286.66 44.1914 286.66 43.832ZM287.035 38.3125L287.059 39.8359H284.867C284.25 39.8359 283.699 39.8867 283.215 39.9883C282.73 40.082 282.324 40.2266 281.996 40.4219C281.668 40.6172 281.418 40.8633 281.246 41.1602C281.074 41.4492 280.988 41.7891 280.988 42.1797C280.988 42.5781 281.078 42.9414 281.258 43.2695C281.438 43.5977 281.707 43.8594 282.066 44.0547C282.434 44.2422 282.883 44.3359 283.414 44.3359C284.078 44.3359 284.664 44.1953 285.172 43.9141C285.68 43.6328 286.082 43.2891 286.379 42.8828C286.684 42.4766 286.848 42.082 286.871 41.6992L287.797 42.7422C287.742 43.0703 287.594 43.4336 287.352 43.832C287.109 44.2305 286.785 44.6133 286.379 44.9805C285.98 45.3398 285.504 45.6406 284.949 45.8828C284.402 46.1172 283.785 46.2344 283.098 46.2344C282.238 46.2344 281.484 46.0664 280.836 45.7305C280.195 45.3945 279.695 44.9453 279.336 44.3828C278.984 43.8125 278.809 43.1758 278.809 42.4727C278.809 41.793 278.941 41.1953 279.207 40.6797C279.473 40.1562 279.855 39.7227 280.355 39.3789C280.855 39.0273 281.457 38.7617 282.16 38.582C282.863 38.4023 283.648 38.3125 284.516 38.3125H287.035Z" fill="white"/>
</g>
<defs>
<clipPath id="clip0_0_1">
<rect width="290" height="56" fill="white"/>
</clipPath>
</defs>
</svg>
